<svg xmlns="http://www.w3.org/2000/svg" width="487.32458mm" height="104.53209mm" viewBox="0 0 487.32458 104.53209"><g style="stroke-width:.177303"><path d="M184.588 421.819h-14.686v14.682h14.686zM199.27 407.136h-14.682v14.684h14.682Z" style="fill:#63c3d1;fill-opacity:1;fill-rule:nonzero;stroke:none;stroke-width:.177303" transform="matrix(1.98969 0 0 -1.98969 -235.155 868.501)"/><path d="M169.904 407.136h-14.68v14.684h14.68z" style="fill:#63c3d1;fill-opacity:1;fill-rule:nonzero;stroke:none;stroke-width:.177303" transform="matrix(1.98969 0 0 -1.98969 -235.155 868.501)"/><path d="M184.588 392.456h-14.686v14.684h14.686z" style="fill:#63c3d1;fill-opacity:1;fill-rule:nonzero;stroke:none;stroke-width:.177303" transform="matrix(1.98969 0 0 -1.98969 -235.155 868.501)"/><g style="stroke-width:.177303"><path d="M0 0a206 206 0 0 0 1.771 2.326c-.172-.041-.079.139-.061.279.147.032 1.242 1.666 1.621 1.999q.014.045.018.099c.019.006.3-.894.471-1.076-.246-.674-.493-1.354-.743-2.023-.11-.563-.007-1.12-.178-1.657-.174-.558-.846-1.238-1.449-1.41-.306-.092-.542-.086-.834-.223q-.867-.542-1.727-1.082C-1.887-2.412-.1-.709 0 0m7.121 1.666q-.005-.036-.012-.078c.11.008.085.029.071-.07-.025.027-.046.046-.071.07-.077-.004-.047.019.012.078M-13.002-12.01q.259.123.516.248c.614.041.977.301 1.507.494q.23.086.467.163a.4.4 0 0 0 .078.005c-.169-1.23-1.039-2.445-.518-3.595.109-.162.22-.33.322-.494.171-.059.34-.125.512-.186.189-.084.336-.271.534-.35.123.01.129-.072.21-.125.353-.23.622-.088.978.204q.006.034.012.076c.317.019.455-.096.793.052.032.245-.055.405.016.68-.119-.006.263.219.355.324.144.008-.002.274-.022.373-.105-.005-.082-.029-.07.073q.053.023.105.041c.246.423.494.853.743 1.277q.408.5.824 1c.076.17.085.289.049.436.485.033.639 1.154.59 1.474.182.012 1.005.873 1.263 1.043q.39.177.79.358a.1.1 0 0 1 .033.015c.127.008.088.201.122.315.017.119-.036.07-.149.064a1 1 0 0 0 .012.074 8 8 0 0 0 .457-.041c.333.123.667.241.999.362.014.101.175.213.125.267q.345.025.7.053c.423.094 1.628.668 1.949.994.051.002.107.008.158.012-.01-.108-.032-.082.067-.074.017.121.169.13.258.169.015.1-.012.075.092.081l-.011-.077c.174.016.093-1.615.354-1.937a.4.4 0 0 1 .086.006c-.042-.104-.086-.207-.122-.315-.017 0-.003-.297-.066-.455q.042.003.081.002c-.036-.258.761.094.882.137l.011.074-.003-.164c-.05-.238-.202-.416-.397-.57-.907-.723-.497-1.717-.39-2.496.017-.264.028-.528.044-.797.071-.158.136-.323.208-.485-.03-.166-.051-.332-.074-.505a2.25 2.25 0 0 1 .164-1.045 1 1 0 0 1-.015-.079c.082.006.258.481.56.639q-.013-.024-.021-.053a33 33 0 0 1-.281-.597c-.147-.518-.07-1.428.29-1.69-.053-.384-.128-.689.279-.81l.034.226c.025.19.203.387.294.555q.134.345.27.691c.172.008-.126.272-.182.364-.113-.006-.023.25-.026.377.101.004.208.013.313.015.075.528-.049.905-.293 1.266-.115-.004.032.057.087.084l.012.078c.115.008.023-.02.07-.076-.006-.022-.006-.045-.012-.074.103.007.089.007.118.095.246.703.51 1.399.813 2.08.129.006.078.069.076.161.031.253.067.502.098.753.057.61.055 1.327.296 1.913-.095-.01-.135.646-.278.808.014.117.103.162.193.238l.092.686c.027.17.244.355.379.479.035.251-.01.468.028.757-.13-.011-.158.055-.216.133-.104-.006-.083-.029-.069.072.161.012.303.229.357.354l.173.664c.467.961 1.053 1.119 1.924 1.609.128.094.256.188.381.274.023.144-.175.117-.295.129a1 1 0 0 0 .013.08c.234.019 1.376 1.013 1.555 1.254l.19.465c.187.076.393-.02.525-.065q.005.044.011.078.254.134.507.262c.018.111.058.08.167.088.02.121-.117.111-.212.135.017.136.145.128.257.168a.3.3 0 0 0 .011.076c-.073-.004-.135.002-.151.066.064.447.327.484.689.422.009.053.448.717.5.785.112.01.133.225.203.317-.019-.131.151-.018.241.017-.026-.148.195.16.265.242-.123-.006-.135.078-.216.137q.008.037.011.078.202.051.409.102.002.036.009.072c.742.053 1.135.574 1.825.725.023.166.147.23.282.324q.016.109.032.226-.082-.007-.16-.011c-.017-.137-.251-.237-.358-.325-.097-.003-.259.168-.367.202l.012.078c.299.021.35.392.667.267.023 0 .05.008.079.008.008.082-.012.098-.059.145.026.189-.031.093-.047.222.016.114-.813-.242-.981-.285.017.119.121-.068.026-.01q.007.035.009.073c.251.013.384.373.507.531.012.111-.084.109-.172.127-.49.111-2.211-.578-2.74-.776-.408-.142-.814-.291-1.219-.435q-.409-.222-.819-.451c-.895-.412-1.828-.662-2.71-1.108q.01.036.011.073c-.087-.004-.091.013-.143.066.042.305.093.527-.054.752.047.131.098.26.144.391.088.656.175 1.312.261 1.976-.133-.01.054.145.114.235.139.009.028.128-.002.209-.246.628.066 1.4.015 2.132-.024.43-.215.651-.002 1.129-.12-.008-.089.043-.113.119-.185.616-.455.399-.971.571.007.047.017.101.021.146.113.012.253.127.337.176.046.314-.495.527-.697.633-.009-.082-.521-.158-.647-.215-.302-.133-.631-.25-.975-.231-.221.012-.42.135-.688.071-.72-.176-2.272-1.647-2.92-2.231q.04.004.084.008c-.019-.135.183-.123.295-.135q-.01-.072-.021-.152c-.106-.004-.077.021-.09-.08-.214-.018-.729-.227-.903-.377-.351-.32-.483-.848-.771-1.221-.166-.213-.503-.265-.611-.543l-.003-.197-.011-.076c-.775-.053-2.254-3.652-3.004-4.119-.012-.049-.016-.102-.024-.153a1 1 0 0 1-.079-.005c-.036-.5-.336-.709-.544-1.125-.123-.249-.165-.446-.334-.67.131.009.036-.073-.021-.153.114.01-.074-.181-.106-.302-.106-.415-.453-.696-.645-1.057-.411-.803-.861-1.486-1.104-2.383-.469-.029-.284-.566-.096-.685a.4.4 0 0 0-.013-.077c-.515-.037-.57-.574-.598-.943q-.041-.005-.078-.004c.013.115-.04.068-.117.041-.673-.23-1.246-.412-1.813-.922-.147-.011.003-.099.058-.148l-.009-.074c-.496-.034-.754-.092-1.229-.393-.409-.264-.932-.91-1.454-.84q-.04-.004-.08-.006c-.007-.025-.007-.051-.013-.076-.13-.008-.081-.137-.11-.234-.02-.123-.308-.309-.392-.428-.125-.191-.32-.311-.466-.492-.258-.334-.496-.715-.566-1.125-.053-.311 1.001-.572 1.293-.518" style="fill:#006eb7;fill-opacity:1;fill-rule:nonzero;stroke:none;stroke-width:.177303" transform="matrix(1.98969 0 0 -1.98969 54.586 69.981)"/></g><g style="stroke-width:.177303"><path d="M0 0c-.44.029-.832-.273-1.183-.541l-.334-.244-1.455-.856-1.39-.816c-.797-.369-1.477-.631-2.127-.809l-.437-.162a1.7 1.7 0 0 0-.413-.15l-.026-.008s-.007-.008-.009-.014c-.033.02-.079.055-.079.055l-.072.051c-.226.139-.287.48-.287.881 0 .25.024.519.047.777.022.26.045.508.045.731 0 .109-.011.203-.026.294.279.096.321.713.354 1.264.015.242.03.467.062.555.052.137.205.263.339.377l.033.027.01.051s-.01.346-.015.392c.23.264.558 1.374.559 1.379a.7.7 0 0 1 .023.182c0 .07-.013.139-.024.197.077.043.107.131.124.188l.018.047.008.043.021.011.157.069s-.023.043-.042.068c.009.016.145.315.175.377a.1.1 0 0 1 .074.045.1.1 0 0 1 .019.06c0 .02-.01.038-.019.057.099.057.186.186.266.301l.105.135.337.334c.22.199.419.392.602.644.011.016.17.438.17.438l.08.207.115.146c.137.18.296.383.296.641q.001.045-.004.097c-.058.401-.412.557-.697.676l-.06.028.008.076h-.093l-.055.004-.218.013c.089.108.135.28.162.401a.24.24 0 0 1 .133.078l.109.113-.181.029-.015.043-.027.1-.059.004-.259.016-.095-.262c-.072.019-.129.062-.181.164l-.018.041-.082.01-.005.008s.005.003.005.007l.011.067s-.107.045-.13.051l.042.074s-.095.006-.117.011l.006.024a.5.5 0 0 1 .009.09.2.2 0 0 1-.027.092c-.016.017-.043.019-.069.029a.24.24 0 0 1-.115.152l-.02.012a1 1 0 0 1 .022.082l-.092.029a1.4 1.4 0 0 0-.352.106c-.288.105-.616.228-.847.088-.109-.069-.176-.196-.215-.368-.04.018-.078.028-.119.057 0 0-.043.025-.07.047-.011.033-.017.07-.017.07l-.127.035h-.122l-.014-.074c-.033-.283-.085-.348-.294-.482l-.191-.125.173-.024c-.009-.011-.016-.025-.016-.025l-.11-.209c-.318-.588-.615-1.174-.615-1.5 0-.037.01-.067.02-.098l-.326.024-.01-.08c-.067-.553-.22-.756-.472-1.086l-.214-.285-.265-.51-.089-.166c-.204-.262-.354-.58-.495-.889-.14-.301-.276-.592-.469-.844l-.4-.424c-.15-.205-.283-.478-.423-.773-.168-.34-.335-.693-.524-.902l-.026-.024-.263-.199C-13.351.699-13.952.07-14.156-.588a1 1 0 0 0-.078-.017l-.011-.01c-.742-.477-1.41-1.256-2.004-1.946l-.227-.257-.305-.383-.082-.104c.009.01-.341-.24-.341-.24-.149-.092-.306-.187-.451-.34l-.366-.476-.048-.061c-.089-.082-.254-.066-.425-.049-.163.016-.338.018-.479-.06a9.6 9.6 0 0 0 .872 2.98.1.1 0 0 1 .076.045.1.1 0 0 1 .02.061c0 .027-.012.058-.018.08l-.012.037a.5.5 0 0 0-.009.098c0 .419.342 1.367.543 1.8l.028.057s-.025.014-.051.031l.016.029.059.108c0 .017.061.348.061.348l.071.414c.096.511.305 1.459.646 2.144l.106-.006-.01.102-.004.057q-.02.135-.02.271c0 .32.082.639.235.967l.11-.008-.032.164c-.182.678-.843 1.742-1.838 1.748-1.234.006-2.492-3.113-2.72-4.232l-.218-.045-.06-.012-.007-.059c-.031-.257-.128-.47-.227-.693l-.143-.344-.409-1.062-.231-.58.09-.028.204-.054c-.088.002-.35.019-.35.019l-.007-.08c-.025-.203-.112-.4-.193-.59l-.124-.302c0-.016-.021-.118-.021-.118s-.089-.545-.091-.55l-.164-.317-.087-.172c-.148-.379-.211-.748-.275-1.136l-.074-.403-.059-.306c-.064-.297-.123-.59-.123-.869 0-.29.073-.567.267-.831q-.003-.007-.005-.019c-.006 0-.318.09-.318.09l-.033-.225.06-.027s.084-.035.137-.063a4 4 0 0 1-.026-.383c0-.697.222-1.3.677-1.867l.137-.16c.14-.16.251-.285.327-.512l.018-.054.915-.051.008.039.551-.217.03.004.454.047c.375.02.791.047 1.002.217q.023.001.086-.006c-.004-.025-.006-.059-.006-.059l-.015-.156h.09c.406-.023.664.205.914.426l.301.246.011.035q.003.034.002.065a.5.5 0 0 1-.047.191.8.8 0 0 1 .225.102l.153.084-.01.035-.035.123c-.014.017-.037.023-.061.033.153.012.287.045.392.09.143.051.219.133.294.213l.165.15.389.217c.344.181.734.39.949.738.061.018.162.082.38.338l.013.02.008.052a.4.4 0 0 1 .118.125l.035.067h.001c.481.131.795.623 1.091 1.105.198.317.405.647.643.846l.024.019.004.024.068-.002.006.084.014.103-.05.047-.043.02c-.036.021-.087.047-.121.076.243.062.46.228.544.434a.52.52 0 0 1-.013.431c.028.002.368.031.387.037.031-.058.061-.14.088-.224.071-.233.166-.535.417-.701-.037 0-.163.005-.163.005s-.003-.048-.006-.07a.4.4 0 0 1-.067.008l-.012-.074q-.007-.054-.006-.104c0-.408.299-.779.606-.935l.009-.002c-.002-.012-.006-.022-.006-.045-.008-.004-.023-.004-.029-.012a.2.2 0 0 1-.018-.072c0-.092.074-.209.173-.354.1-.156.235-.359.235-.494q0-.013-.006-.033c-.02-.014-.037-.033-.039-.041a.1.1 0 0 1-.008-.039c0-.088.137-.233.99-.854l.096-.068.18-.221c.064-.09.138-.178.232-.25a.5.5 0 0 0-.084-.131l-.154-.189.166-.01c.085-.006.289-.148.453-.264.168-.121.328-.234.453-.279l.1-.037s.051.422.053.449c.098-.008.515-.031.515-.031l.128.033.044.123q.106-.057.211-.152l.346-.262.009.149v.011c.165.03.308.157.38.233l.234-.004c.669-.045.906.299 1.203.726l.117.166.018.186h-.155a.1.1 0 0 1-.039.045c-.048.025-.1-.002-.156-.037l-.067.014-.001.007c0 .028.021.125.166.36.033-.008.292-.098.292-.098l.012.104a.05.05 0 0 0 .015.033c.046.019.185-.039.292-.11.006-.027.012-.06.032-.082.046-.041.107-.041.164-.035a.5.5 0 0 1 .086-.148v-.006a.14.14 0 0 1 .036-.1c.038-.039.088-.035.125-.033l.116.006.018.074.012.074-.022.057c-.02.023-.04.022-.06.023a.2.2 0 0 0-.009.053l.015.018s.01.023.018.049l.151-.01v.002c.054-.006.109.027.148.056q.001 0 .01.008c.037.004.317.047.317.047s-.003.135-.005.154c.005-.007.015-.007.021-.019q.001-.016.003-.026-.002-.015-.003-.017c.02.027.134.123.679.402 0 0 .019.014.042.024l.128-.004.005.078.019.174-.103-.012s-.32-.037-.369-.041c.002.004.014.109.014.109v.026c0 .047-.02.084-.035.105-.052.049-.133.061-.211.061l.007.006v.029l.018.15c.316.035.669.358.83.569.014 0 .101-.008.101-.008l.04.308s-.05.004-.068.004l.016.073.029.011.093.039.319.149c.402.17.663.297.719.41l.381.893-.01.009c.106.143.712.635.894.674l.056.016.009.06v.016c0 .127-.109.277-.199.412 0 0-.033.047-.057.088l.097.154c.121.201.407.664.495.719l.033.022.033.265z" style="fill:#006eb7;fill-opacity:1;fill-rule:nonzero;stroke:none;stroke-width:.177303" transform="matrix(1.98969 0 0 -1.98969 130.37 62.322)"/></g><path d="M183.592 408.171h-12.656v12.658h12.656zm.504 13.67h-14.17v-14.682h14.675v14.682z" style="fill:#e30613;fill-opacity:1;fill-rule:nonzero;stroke:none;stroke-width:.177303" transform="matrix(1.98969 0 0 -1.98969 -235.155 868.501)"/><g style="stroke-width:.177303"><path d="M0 0a15 15 0 0 1-1.486.287l-.03-.021-.165-.125s-.005-.008-.006-.016a.6.6 0 0 1-.195-.02c.002 0 .007.01.007.01l-.068.01-.3.055c-.07.011-.148-.049-.225-.114 0 0-.03-.017-.047-.029l-.103.141-.028-.117s-.009-.03-.01-.041c-.009.003-.027.003-.027.003-.002.028-.052.039-.223-.136a3 3 0 0 1-.136.074l-.038-.049c-.022-.025-.142-.068-.188-.086h-.002c-.004.004-.001.01-.006.012-.017.006-.042.01-.076-.035-.018.01-.07.029-.07.029l-.055.006-.025-.029-.154-.215-.012.004.002.091-.18.026s-.033-.111-.039-.127l-.029.006-.012-.028c-.016.006-.145.077-.145.077l-.015-.071c-.005-.015-.035-.07-.251-.142l-.03-.01-.008-.029c-.009-.03-.054-.059-.091-.086l-.073-.055-.002-.012c-.193.008-.381-.07-.561-.146l-.252-.1-.011-.029c-.05-.158-.123-.389-.239-.494-.013.025-.032.041-.044.054 0 .006.023.077.023.077l-.066.011c-.096.018-.166-.123-.216-.271l-.001.033-.05.006q-.002.002-.009.004l.009.023-.061.032c-.061.009-.103-.022-.133-.067l-.01.084-.043.014c-.065.011-.221-.053-.528-.192l-.329-.144-.012-.028c-.039-.125-.137-.21-.238-.306a1 1 0 0 1-.231-.254c-.201.029-.338-.002-.494-.201-.012-.004-.026-.004-.037-.016-.028-.023-.034-.062-.034-.109q.002-.037.005-.082l-.06.011.038-.097s.005-.014.011-.024c-.014-.019-.036-.031-.095-.037 0 0-.019 0-.036-.002l.042.094.002.004-.109.045-.005-.012c-.012-.037-.088-.099-.146-.146l-.286-.252.223.05.044.008c-.009-.037-.023-.131-.028-.158-.227-.129-.81-.826-.818-.836-.006-.008-.068-.133-.068-.133l-.052-.111c-.045-.006-.121-.039-.283-.166l-.002.006-.011.037-.044.029c-.1.02-.122-.062-.135-.103-.004-.018-.065-.217-.065-.217-.065-.225-.08-.27-.351-.408l-.013.209-.093-.188s-.199-.351-.223-.396l-.215.166c-.055-.033-.069-.086-.081-.156l-.063.009s-.007-.033-.012-.045l-.026.006-.019-.037-.18-.299c-.002-.008-.166-.34-.166-.34l-.196-.248c-.189-.226-.38-.461-.436-.767-.221-.069-.436-.875-1.106-2.063l-.397-.677c-.009-.016-.027-.163-.027-.163v-.011c0-.047-.005-.067-.084-.108l-.019-.011-.01-.026c-.068-.226-.121-.351-.274-.527l-.017-.043-.027-.072s.016-.01.027-.012c-.027-.041-.132-.227-.132-.227a.2.2 0 0 1-.012-.058c0-.065.03-.119.056-.162l.044-.094.057-.022.026-.003c-.089-.194-.178-.387-.178-.538a.4.4 0 0 1 .025-.129c.028-.05.082-.08.139-.105-.057-.141-.152-.365-.153-.537l.04.01-.028-.092.06-.029s.12-.022.126-.022c-.008-.043-.035-.26-.035-.26s.014-.007.024-.007c-.015-.02-.028-.036-.028-.073 0-.049.018-.127.041-.236l-.046.023-.098-.416-.031-.131c-.005-.015-.005-.513-.005-.513-.008-.113-.073-.233-.134-.332l-.008-.014-.002-.062.031-.047.013-.051.016-.055c-.005.012-.016-.008-.016-.008l-.027-.099.135.029c.108.027.278-.232.369-.373 0 0 .042-.058.063-.092v-.009c-.009-.002-.089-.063-.089-.063l.007-.018v-.011c0-.026.019-.041.04-.059l-.006-.049s.013-.006.027-.009c-.005-.016-.021-.178-.027-.206v-.005l-.003-.02.12-.006a.04.04 0 0 0-.025-.017l-.029.002.07-.127s.012-.004.025-.012q-.005-.014-.006-.023-.002-.039.028-.075c.153-.16.212-.267.212-.42 0-.113-.034-.255-.083-.466l-.012-.045-.024-.028-.033-.037h-.002s0-.006-.003-.006c-.038-.06-.143-.193-.143-.193l-.012-.027-.009-.088.057-.022c.103-.015.146.09.178.18.032-.016.067-.027.076-.053l.021-.058.025.019s.052.022.094.037c0-.01-.047-.16-.047-.16l-.008-.035.046-.02a.2.2 0 0 0 .026-.113.3.3 0 0 0-.041-.146q-.004-.023-.003-.045c0-.078.053-.174.125-.291l.045-.073c-.011.024-.019 0-.019 0l-.018-.064.182-.033.022.039s.06.111.067.127c.028-.006.049-.014.049-.014s.153-.019.199-.021l.016-.11.051.002h.32l.01.039c.037.125.072.149.159.205h.072c.051.006.063.006.08-.017l.014-.018.011-.002c0-.056-.065-.205-.088-.254l-.059-.14.077-.01.086-.014s.009.032.015.043l.028-.006.019.036.144.234.016.029q.001 0 .002.012l.04-.023h.005l-.003-.04-.049-.265-.042-.238c0-.014.065-.188.065-.188s.074-.184.082-.197q-.006-.006-.005-.006l-.024-.07.037-.014c-.005-.022-.025-.088-.025-.088l.077.023.142.034c.073.007.229.006.259-.073l.01-.031.14-.025.036.049c.023.058.135.045.17.041a1 1 0 0 1 .099-.034l-.017-.06.066-.01c.057-.01.091.022.113.063a.37.37 0 0 1 .164-.135c-.014.01.066-.059.066-.059l.08-.07c.197-.078.393-.033.565.004 0 0 .204.043.212.043 0-.002.095-.158.095-.158l.035.134q.05.162.391.155c.092-.014.169.105.269.277 0 0 .017.035.029.055.03.006.128.021.164.035-.002-.018-.008-.029-.008-.029l.069-.012-.078-.188c-.055-.121-.117-.246-.135-.41l-.005-.056.144-.028.014.053a.8.8 0 0 0 .195.283c.004 0 .013-.004.013-.004l.019-.002.067-.134.032-.071.111-.015.181.291.007.027.181.029.187.037.385-.023c.016 0 .18.064.18.064.094.045.154.075.201.041l.067-.048.033.097c.052.02.113.051.175.098a.3.3 0 0 1-.027-.055l.203-.035q.002.002.011.029l.059-.025.118-.057.015.067.028.097-.056.024-.003.043.003.01c.013-.01.028-.018.028-.018l.112-.07.016.078c.018.068.087.123.181.154.105.037.213.031.254 0l.068-.049.024.08c.035.117.264.184.381.207l.047.008.6.139.099.01.011.039.032.097-.012.006c.006.002.02.02.027.026.099.007.481.043.584.084l.024.011.032.102c.05.01.112.021.168.027.116-.021.306.139.37.277h.005c.052-.037.089.022.155.122 0 0 .015.019.025.035v-.01l1.103.562.064.047h.071l.009.051c.029.16.105.274.216.33a.4.4 0 0 0 .36-.006l.093-.043-.011.098c-.006.057.018.449.045.504.047.059.107.068.181.08.079.012.167.022.242.1.007.007.073.103.073.103l.068.092c-.012-.008.176.074.176.074.094.027.196.057.273.147.088.103.12.236.149.367l.084.258c.084.162.76.541.883.498l.07-.028.002.041c.139.08.639 1.336.648 1.35.002.008.302-.039.302-.039l.012.039v.008c.3.049.522.289.738.529.197.223.317.713.551.76l.045.008.003.045v.037q0 .126-.069.174c-.092.07-.224.017-.333-.028l-.087-.033-.002-.039a1.9 1.9 0 0 1-.579-.195v.015l-.071-.006c-.072-.007-.138-.06-.193-.113l-.082-.059a4 4 0 0 1-.204-.084c-.006.006-.004.016-.009.022-.049.018-.084-.022-.112-.047l-.018-.019c-.304-.26-1.021-.801-1.28-.819l-.05-.002s-.005-.025-.005-.041c-.014-.004-.054-.004-.054-.004l-.026-.041c-.027-.031-.191-.052-.299-.052l-.039.003-.022-.046c-.05-.102-.77-.545-.888-.524-.09.004-.112-.035-.115-.068-.031.006-.128.033-.128.033l-.03-.062c-.008-.063-.148-.198-.96-.389q.002.008.004.01l-.09.017-.052-.008-.026-.041c-.015-.031-.147-.08-.205-.103l-.127-.055s0-.01.002-.015c-.047-.002-.103-.041-.211-.108-.09-.058-.227-.146-.279-.152l-.038-.006-.012-.027c-.034 0-.092-.018-.214-.055l-.247-.07-.014-.032c-.237.022-.577-.086-.789-.213-.005.008-.001.012-.005.018-.024.033-.059.033-.081.033h-.019l-.065.012-.037-.045c-.016-.012-.086-.012-.112-.012l-.07-.006-.079.122-.05-.094c-.025-.035-.208-.082-.303-.11 0 0-.171-.054-.218-.074q-.018.001-.062.014c-.006.012-.008.029-.021.035-.048.021-.09-.018-.146-.092l-.093.051c-.016.006-.051.012-.051.012l-.049.008-.02-.049c-.012-.034-.077-.043-.129-.047l-.091-.016-.006-.025-.172.041-.408-.088c0 .002-.225.016-.225.016l-.281.021c-.531.117-1.18.633-1.287 1.268a2 2 0 0 0-.021.277c0 .154.016.311.034.48l.002.032.012.209c.004.138.008.265.052.422l.18.437.113.244.116.395.171.33c.008.021.024.248.024.248l.008.056.041.166s.015.053.024.102a.1.1 0 0 0 .007-.045c0-.045-.007-.107-.016-.203l-.012-.057.141-.023.02.039.097.199.178.17.349.44.226.339c.138.233.294.489.442.582l.017.008.001.004.032-.015.111-.065.016.076a.4.4 0 0 1 .015.129c0 .07-.011.141-.022.207 0 0-.001.016-.006.028.033-.043.075-.092.158-.088.189.011.768.541.93.761l.064-.046.088-.088.049.074.11.144c.08.078.17.18.217.315.036.01.18.043.252.058a.3.3 0 0 1 .084-.103l-.018-.065.086-.021.066-.014.026.076h-.003a.22.22 0 0 1 .076.114l.016.06c.006.014.128.119.128.119l.016.01c.025-.01.054-.015.054-.015l.018-.006c.039-.012.191-.18.225-.242l.064-.139.047.146q.028.098.115.135a.37.37 0 0 0 .274-.021l.033-.02.037.033c.053.037.485.17.572.176l.354-.023c.144-.016.291-.039.451-.014.204.037.401.156.595.275l.315.178.439.147.444.146c.293.141.59.289.819.459.001.004.486.42.486.42-.002-.006.18.109.18.109.119.071.245.143.36.27.14.156.196.361.252.56l.121.344.149.244a2.8 2.8 0 0 1 .07 1.707l-.079.252c-.005.014-.229.303-.229.303-.199.234-.392.457-.392.793 0 .051.007.107.018.16l.01.07H1.8s-.007-.031-.017-.041c-.001.004 0 .016-.01.026-.156.129-.162.203-.168.355 0 0-.021.176-.022.205l.044.143-.147.025-.027-.05s-.007-.022-.007-.036l-.099.016.053-.117c-.002 0-.002-.004-.013-.004-.091-.006-.238.084-.255.131l-.014.027-.117.024-.017-.051C.971-.652.968-.652.961-.652s-.012.004-.012.004l-.052.005S.895-.652.89-.66c-.065.111-.117.197-.163.226a.03.03 0 0 1-.016.006c-.004.012-.004.03-.02.041-.048.026-.17-.082-.17-.082C.11-.162 0 0 0 0" style="fill:#006eb7;fill-opacity:1;fill-rule:nonzero;stroke:none;stroke-width:.177303" transform="matrix(1.98969 0 0 -1.98969 28.345 53.22)"/></g><g style="stroke-width:.177303"><path d="M0 0c-.912 0-1.796.531-2.25 1.35a2.413 2.413 0 0 0 .001 2.369C-1.791 4.537-.912 5.066 0 5.066c.915 0 1.791-.529 2.254-1.347.207-.369.302-.77.302-1.186C2.556 1.162 1.39 0 0 0m0 6.697c-2.821 0-5.117-1.869-5.117-4.164 0-.771.256-1.523.75-2.174C-3.438-.889-1.799-1.629 0-1.629c1.797 0 3.437.74 4.371 1.988.492.651.746 1.403.746 2.174 0 .774-.254 1.524-.746 2.176C3.437 5.951 1.797 6.697 0 6.697" style="fill:#878787;fill-opacity:1;fill-rule:nonzero;stroke:none;stroke-width:.177303" transform="matrix(1.98969 0 0 -1.98969 370.91 61.984)"/></g><g style="stroke-width:.177303"><path d="M0 0v3.643h-2.56V-5.99H0v4.355h2.373V0Z" style="fill:#878787;fill-opacity:1;fill-rule:nonzero;stroke:none;stroke-width:.177303" transform="matrix(1.98969 0 0 -1.98969 380.837 36.46)"/></g><path d="M316.536 419.909h3.579v-5.148h-3.579zm-2.503-6.732h8.584v8.304l-8.581.004z" style="fill:#878787;fill-opacity:1;fill-rule:nonzero;stroke:none;stroke-width:.177303" transform="matrix(1.98969 0 0 -1.98969 -235.155 868.501)"/><g style="stroke-width:.177303"><path d="M0 0h-3.797v-1.555H0v-1.679h-3.797v-1.551H0v-2.793h2.505v9.723H0Z" style="fill:#878787;fill-opacity:1;fill-rule:nonzero;stroke:none;stroke-width:.177303" transform="matrix(1.98969 0 0 -1.98969 412.718 33.308)"/></g><g style="stroke-width:.177303"><path d="M0 0h-3.798v-1.555H0v-1.679h-3.798v-1.551H0v-2.793h2.505v9.723H0Z" style="fill:#878787;fill-opacity:1;fill-rule:nonzero;stroke:none;stroke-width:.177303" transform="matrix(1.98969 0 0 -1.98969 447.536 33.308)"/></g><g style="stroke-width:.177303"><path d="M0 0c-.91 0-1.792.531-2.249 1.348a2.46 2.46 0 0 0-.308 1.183c0 .416.106.819.312 1.186.456.818 1.337 1.349 2.245 1.349.916 0 1.795-.531 2.256-1.349.205-.367.3-.77.3-1.186C2.556 1.16 1.39 0 0 0m0 6.697c-2.814 0-5.114-1.871-5.114-4.166 0-.769.255-1.523.75-2.174C-3.434-.889-1.795-1.631 0-1.631c1.8 0 3.438.742 4.373 1.988.492.651.75 1.405.75 2.174 0 .774-.258 1.524-.75 2.176C3.438 5.949 1.8 6.697 0 6.697" style="fill:#878787;fill-opacity:1;fill-rule:nonzero;stroke:none;stroke-width:.177303" transform="matrix(1.98969 0 0 -1.98969 407.148 61.98)"/></g><g style="stroke-width:.177303"><path d="M0 0v-9.961h-3.032v-1.555H0v-2.043h2.507V0Z" style="fill:#878787;fill-opacity:1;fill-rule:nonzero;stroke:none;stroke-width:.177303" transform="matrix(1.98969 0 0 -1.98969 481.845 28.944)"/></g><g style="stroke-width:.177303"><path d="M0 0c-.469.498-.737 1.232-.737 2.01 0 1.445.914 2.613 2.037 2.613.471 0 .934-.213 1.297-.603.467-.5.733-1.231.733-2.01S3.064.498 2.597 0C2.234-.393 1.771-.605 1.3-.605.825-.605.358-.393 0 0m.043-5.477h2.499v2.831h5.916v1.558H4.262c.901.76 1.476 1.856 1.476 3.078 0 1.059-.432 2.067-1.206 2.838-.846.842-1.994 1.305-3.232 1.305-1.237 0-2.388-.463-3.237-1.305-.775-.771-1.207-1.779-1.207-2.838s.432-2.07 1.207-2.842c.083-.082.178-.16.266-.236h-2.457v-1.558H.043z" style="fill:#878787;fill-opacity:1;fill-rule:nonzero;stroke:none;stroke-width:.177303" transform="matrix(1.98969 0 0 -1.98969 466.475 40.96)"/></g><g style="stroke-width:.177303"><path d="M0 0h-2.5v-3.625h-.001v-1.553h12.886v1.553H0Z" style="fill:#878787;fill-opacity:1;fill-rule:nonzero;stroke:none;stroke-width:.177303" transform="matrix(1.98969 0 0 -1.98969 466.662 53.415)"/></g><path d="M334.035 417.339h3.577v-2.578h-3.577zm6.081-4.162v8.478h-2.504v-2.742h-3.577v2.746h-2.501l-.002-8.482z" style="fill:#878787;fill-opacity:1;fill-rule:nonzero;stroke:none;stroke-width:.177303" transform="matrix(1.98969 0 0 -1.98969 -235.155 868.501)"/><g style="stroke-width:.177303"><path d="M0 0c-.912 0-1.793.531-2.25 1.348a2.408 2.408 0 0 0 .003 2.369C-1.79 4.535-.908 5.066 0 5.066c.915 0 1.795-.531 2.254-1.349.205-.367.301-.77.301-1.186C2.555 1.16 1.389 0 0 0m0 6.697c-2.816 0-5.114-1.871-5.114-4.166 0-.769.253-1.523.749-2.174C-3.434-.889-1.797-1.631 0-1.631c1.799 0 3.437.742 4.371 1.988a3.6 3.6 0 0 1 .751 2.174c0 .774-.258 1.524-.751 2.176C3.437 5.949 1.799 6.697 0 6.697" style="fill:#878787;fill-opacity:1;fill-rule:nonzero;stroke:none;stroke-width:.177303" transform="matrix(1.98969 0 0 -1.98969 441.967 61.98)"/></g><g style="stroke-width:.177303"><path d="M0 0v3.09h-2.498V0" style="fill:#878787;fill-opacity:1;fill-rule:nonzero;stroke:none;stroke-width:.177303" transform="matrix(1.98969 0 0 -1.98969 362.94 44.66)"/></g><path d="M295.452 412.757h12.063v1.561h-12.063z" style="fill:#878787;fill-opacity:1;fill-rule:nonzero;stroke:none;stroke-width:.177303" transform="matrix(1.98969 0 0 -1.98969 -235.155 868.501)"/><g style="stroke-width:.177303"><path d="M0 0v6.115h-6.127v1.623h8.692V0Z" style="fill:#878787;fill-opacity:1;fill-rule:nonzero;stroke:none;stroke-width:.177303" transform="matrix(1.98969 0 0 -1.98969 366.927 45.273)"/></g><g style="stroke-width:.177303"><path d="M0 0c-.908 0-1.784.527-2.237 1.344a2.35 2.35 0 0 0-.309 1.177c0 .415.103.819.309 1.178.453.813 1.329 1.342 2.237 1.342.903 0 1.785-.529 2.237-1.342a2.33 2.33 0 0 0 .313-1.178C2.55 1.158 1.38 0 0 0m0 6.662c-2.809 0-5.097-1.855-5.097-4.141 0-.767.262-1.513.75-2.16C-3.415-.877-1.788-1.623 0-1.623c1.791 0 3.419.746 4.352 1.984.487.647.745 1.393.745 2.16 0 .772-.258 1.516-.745 2.166C3.419 5.93 1.791 6.662 0 6.662" style="fill:#878787;fill-opacity:1;fill-rule:nonzero;stroke:none;stroke-width:.177303" transform="matrix(1.98969 0 0 -1.98969 233.044 61.844)"/></g><g style="stroke-width:.177303"><path d="M0 0c-1.079 0-2.117.471-2.656 1.221-.24.328-.365.685-.365 1.062s.125.738.367 1.08C-2.113 4.1-1.074 4.584 0 4.584c1.072 0 2.112-.484 2.653-1.221q.36-.514.362-1.08C3.015 1.045 1.634 0 0 0m0 6.178c-3.014 0-5.463-1.744-5.463-3.891 0-.721.27-1.426.811-2.033C-3.664-.912-1.924-1.611 0-1.611c1.916 0 3.656.699 4.656 1.865.523.607.797 1.312.797 2.033 0 .723-.274 1.422-.797 2.035-1 1.174-2.74 1.856-4.656 1.856" style="fill:#878787;fill-opacity:1;fill-rule:nonzero;stroke:none;stroke-width:.177303" transform="matrix(1.98969 0 0 -1.98969 197.36 61.867)"/></g><g style="stroke-width:.177303"><path d="M0 0c-.433 0-.851.227-1.179.643-.424.527-.67 1.304-.67 2.128 0 .829.246 1.598.67 2.133.328.407.746.641 1.179.641.429 0 .851-.234 1.178-.641.425-.535.669-1.304.669-2.133C1.847 1.244 1.02 0 0 0m3.202-.254a4.4 4.4 0 0 1 1.195 3.025 4.43 4.43 0 0 1-1.195 3.032A4.33 4.33 0 0 1 0 7.182a4.403 4.403 0 0 1-4.399-4.411c0-1.126.421-2.201 1.19-3.025A4.37 4.37 0 0 1 0-1.643c1.226 0 2.363.493 3.202 1.389" style="fill:#878787;fill-opacity:1;fill-rule:nonzero;stroke:none;stroke-width:.177303" transform="matrix(1.98969 0 0 -1.98969 224.798 43.322)"/></g><g style="stroke-width:.177303"><path d="M0 0v-1.623h-4.291C-3.24-4.557.551-4.998.551-4.998v-1.594s-4.572.213-6.785 3.537c-2.217-3.324-6.786-3.537-6.786-3.537v1.594s3.784.441 4.834 3.375h-4.291V0Z" style="fill:#878787;fill-opacity:1;fill-rule:nonzero;stroke:none;stroke-width:.177303" transform="matrix(1.98969 0 0 -1.98969 209.749 29.655)"/></g><g style="stroke-width:.177303"><path d="M0 0v.104h-11.518v-1.627h8.967v-5.174H0v.109z" style="fill:#878787;fill-opacity:1;fill-rule:nonzero;stroke:none;stroke-width:.177303" transform="matrix(1.98969 0 0 -1.98969 311.546 50.566)"/></g><g style="stroke-width:.177303"><path d="M0 0c-.471 0-.928.207-1.291.592-.461.482-.727 1.201-.727 1.955 0 .758.266 1.478.727 1.959.363.381.82.594 1.291.594.472 0 .929-.213 1.292-.594.463-.481.728-1.201.728-1.959C2.02 1.143 1.116 0 0 0m3.231-.213c.78.764 1.208 1.752 1.208 2.803 0 1.043-.428 2.035-1.208 2.791C2.384 6.223 1.238 6.664 0 6.664c-2.446 0-4.436-1.824-4.436-4.074 0-1.051.428-2.039 1.205-2.803C-2.383-1.039-1.236-1.5 0-1.5c1.238 0 2.384.461 3.231 1.287" style="fill:#878787;fill-opacity:1;fill-rule:nonzero;stroke:none;stroke-width:.177303" transform="matrix(1.98969 0 0 -1.98969 293.11 44.24)"/></g><g style="stroke-width:.177303"><path d="M0 0v13.568h-12.301v-1.621h9.746V0H-4.4v7.141h-2.552V0h-1.781v7.141h-2.551V0h-2.664v-1.637H1.574V0Z" style="fill:#878787;fill-opacity:1;fill-rule:nonzero;stroke:none;stroke-width:.177303" transform="matrix(1.98969 0 0 -1.98969 344.87 57.246)"/></g><g style="stroke-width:.177303"><path d="M0 0h-5.791v8.623h3.76v1.613h-6.314V-1.617H0Z" style="fill:#878787;fill-opacity:1;fill-rule:nonzero;stroke:none;stroke-width:.177303" transform="matrix(1.98969 0 0 -1.98969 268.483 50.632)"/></g><g style="stroke-width:.177303"><path d="M0 0v1.877h-2.821V0h-3.397v-1.621h9.623V0Z" style="fill:#878787;fill-opacity:1;fill-rule:nonzero;stroke:none;stroke-width:.177303" transform="matrix(1.98969 0 0 -1.98969 295.917 30.234)"/></g><g style="stroke-width:.177303"><path d="M0 0v3.633h-2.551v-9.592H0v4.336h2.359V0Z" style="fill:#878787;fill-opacity:1;fill-rule:nonzero;stroke:none;stroke-width:.177303" transform="matrix(1.98969 0 0 -1.98969 242.925 36.44)"/></g><g style="stroke-width:.177303"><path d="M0 0v3.633h-2.551v-9.592H0v4.336h2.356V0Z" style="fill:#878787;fill-opacity:1;fill-rule:nonzero;stroke:none;stroke-width:.177303" transform="matrix(1.98969 0 0 -1.98969 311.546 36.44)"/></g><g style="stroke-width:.177303"><path d="M0 0v1.643h6.499v1.621H-9.018V1.643h6.47V0Z" style="fill:#878787;fill-opacity:1;fill-rule:nonzero;stroke:none;stroke-width:.177303" transform="matrix(1.98969 0 0 -1.98969 199.84 50.78)"/></g><g style="stroke-width:.177303"><path d="M0 0v-5.109h-1.013V0h-2.425v-17.43h2.425v10.698H0V-17.43h2.419V0Z" style="fill:#878787;fill-opacity:1;fill-rule:nonzero;stroke:none;stroke-width:.177303" transform="matrix(1.98969 0 0 -1.98969 273.716 29.212)"/></g><g style="stroke-width:.177303"><path d="M0 0v-.324a4 4 0 0 0-.056-.508c-.124-.585-.619-.92-1.349-.92-.483 0-.887.156-1.112.427a1.1 1.1 0 0 0-.248.493 4 4 0 0 0-.056.508v4.797c.011.18.023.348.056.506.124.584.619.91 1.348.91.483 0 .888-.147 1.113-.415a1.1 1.1 0 0 0 .248-.495c.033-.158.045-.326.056-.506V2.955h-1.168v1.45c0 .123 0 .193-.012.26-.011.135-.101.212-.225.212-.203 0-.247-.089-.247-.472V-.259c0-.381.044-.471.247-.471.191 0 .237.079.237.471v1.552H0Z" style="fill:#878787;fill-opacity:1;fill-rule:nonzero;stroke:none;stroke-width:.177303" transform="matrix(1.98969 0 0 -1.98969 187.51 84.08)"/></g><g style="stroke-width:.177303"><path d="M0 0h1.147v-3.18h.472V0h1.147v-7.496H1.619v3.305h-.472v-3.305H0Z" style="fill:#878787;fill-opacity:1;fill-rule:nonzero;stroke:none;stroke-width:.177303" transform="matrix(1.98969 0 0 -1.98969 190.163 72.497)"/></g><g style="stroke-width:.177303"><path d="M0 0v-6.08c0-.381.045-.472.235-.472.202 0 .248.079.248.472V0H1.64v-6.146q-.002-.27-.055-.507c-.124-.585-.607-.92-1.35-.92-.483 0-.876.156-1.111.427a1.15 1.15 0 0 0-.236.493 2.4 2.4 0 0 0-.057.507V0Z" style="fill:#878787;fill-opacity:1;fill-rule:nonzero;stroke:none;stroke-width:.177303" transform="matrix(1.98969 0 0 -1.98969 200.872 72.497)"/></g><g style="stroke-width:.177303"><path d="M0 0h1.224l.652-3.811V0h1.058v-7.496H1.72l-.653 3.799v-3.799H0Z" style="fill:#878787;fill-opacity:1;fill-rule:nonzero;stroke:none;stroke-width:.177303" transform="matrix(1.98969 0 0 -1.98969 207.017 72.497)"/></g><g style="stroke-width:.177303"><path d="M0 0v1.181c0 .123 0 .192-.012.259-.009.135-.1.212-.223.212-.202 0-.248-.089-.248-.471v-4.664c0-.381.046-.472.248-.472.191 0 .235.079.235.472v1.472h-.225v1.024h1.371v-3.912H.529l-.078.294c-.158-.26-.394-.372-.765-.372-.405 0-.821.169-1.034.427-.124.123-.201.303-.248.493-.033.16-.043.327-.055.508v4.797c.012.181.022.349.055.506.124.573.619.91 1.338.91.472 0 .877-.146 1.101-.415.124-.137.202-.305.247-.495.046-.248.056-.292.056-.831V0Z" style="fill:#878787;fill-opacity:1;fill-rule:nonzero;stroke:none;stroke-width:.177303" transform="matrix(1.98969 0 0 -1.98969 218.863 77.664)"/></g><path d="M230.611 396.042h1.124v-.944h-1.124z" style="fill:#878787;fill-opacity:1;fill-rule:nonzero;stroke:none;stroke-width:.177303" transform="matrix(1.98969 0 0 -1.98969 -235.155 868.501)"/><g style="stroke-width:.177303"><path d="m0 0-.27 2.73L-.484 0Zm-1.045 4.798H.516l.9-7.496H.27L.102-.988h-.653l-.134-1.71H-1.82Z" style="fill:#878787;fill-opacity:1;fill-rule:nonzero;stroke:none;stroke-width:.177303" transform="matrix(1.98969 0 0 -1.98969 231.49 82.044)"/></g><g style="stroke-width:.177303"><path d="M0 0h1.225l.652-3.811V0h1.057v-7.496H1.72l-.651 3.799v-3.799H0Z" style="fill:#878787;fill-opacity:1;fill-rule:nonzero;stroke:none;stroke-width:.177303" transform="matrix(1.98969 0 0 -1.98969 236.28 72.497)"/></g><g style="stroke-width:.177303"><path d="M0 0v1.181c0 .123 0 .192-.012.259-.01.135-.1.212-.224.212-.202 0-.247-.089-.247-.471v-4.664c0-.381.045-.472.247-.472.191 0 .236.079.236.472v1.472h-.225v1.024h1.371v-3.912H.529l-.08.294c-.157-.26-.393-.372-.763-.372-.405 0-.821.169-1.035.427-.124.123-.202.303-.247.493-.033.16-.045.327-.056.508v4.797c.011.181.023.349.056.506.123.573.619.91 1.337.91.472 0 .877-.146 1.101-.415a1.1 1.1 0 0 0 .248-.495c.046-.248.056-.292.056-.831V0Z" style="fill:#878787;fill-opacity:1;fill-rule:nonzero;stroke:none;stroke-width:.177303" transform="matrix(1.98969 0 0 -1.98969 248.127 77.664)"/></g><g style="stroke-width:.177303"><path d="M0 0v-6.08c0-.381.044-.472.235-.472.202 0 .248.079.248.472V0h1.156v-6.146c0-.181-.022-.348-.055-.507-.124-.585-.607-.92-1.349-.92-.483 0-.877.156-1.113.427-.112.134-.19.302-.235.493a2.5 2.5 0 0 0-.057.507V0Z" style="fill:#878787;fill-opacity:1;fill-rule:nonzero;stroke:none;stroke-width:.177303" transform="matrix(1.98969 0 0 -1.98969 259.705 72.497)"/></g><g style="stroke-width:.177303"><path d="M0 0h1.224l.652-3.811V0h1.056v-7.496H1.72l-.653 3.799v-3.799H0Z" style="fill:#878787;fill-opacity:1;fill-rule:nonzero;stroke:none;stroke-width:.177303" transform="matrix(1.98969 0 0 -1.98969 265.85 72.497)"/></g><path d="M256.18 400.064h1.146v-7.496h-1.146z" style="fill:#878787;fill-opacity:1;fill-rule:nonzero;stroke:none;stroke-width:.177303" transform="matrix(1.98969 0 0 -1.98969 -235.155 868.501)"/><g style="stroke-width:.177303"><path d="M0 0h1.136l.449-4.776L1.967 0h1.135L2.27-7.496H.877Z" style="fill:#878787;fill-opacity:1;fill-rule:nonzero;stroke:none;stroke-width:.177303" transform="matrix(1.98969 0 0 -1.98969 278.84 72.497)"/></g><g style="stroke-width:.177303"><path d="M0 0h2.169v-1.021H1.146V-3.18h1.023v-1.011H1.146v-2.282h1.023v-1.023H0Z" style="fill:#878787;fill-opacity:1;fill-rule:nonzero;stroke:none;stroke-width:.177303" transform="matrix(1.98969 0 0 -1.98969 287.008 72.497)"/></g><g style="stroke-width:.177303"><path d="M0 0c.382 0 .461.079.461.427v1.416c0 .349-.079.428-.461.428Zm-1.147 3.293H.214c.583 0 .831-.079 1.078-.304.225-.223.315-.561.315-1.281V.831c0-.246-.033-.583-.079-.785-.066-.279-.19-.417-.54-.585.169-.067.214-.09.304-.157.225-.157.315-.439.315-.91v-1.877c0-.361.012-.484.101-.72H.584c-.09.192-.123.349-.123.708v2.079c0 .349-.079.417-.461.417v-3.204h-1.147z" style="fill:#878787;fill-opacity:1;fill-rule:nonzero;stroke:none;stroke-width:.177303" transform="matrix(1.98969 0 0 -1.98969 296.083 79.05)"/></g><g style="stroke-width:.177303"><path d="M0 0v-1.339c0-.122 0-.202.011-.258.012-.134.091-.214.226-.214.201 0 .246.091.246.472v.902c0 .448-.045.56-.37.831l-.607.548c-.528.462-.652.721-.652 1.373v1.078c.013.18.022.348.056.505.124.574.618.911 1.316.911.45 0 .852-.157 1.077-.415.113-.137.204-.305.237-.496.056-.248.056-.292.056-.831v-.911H.483v1.169c0 .383-.045.472-.246.472-.191 0-.237-.089-.237-.472v-.763c0-.406.046-.485.394-.798l.607-.539c.506-.439.618-.721.618-1.427v-1.202a2.5 2.5 0 0 0-.056-.508c-.113-.573-.607-.92-1.326-.92-.45 0-.855.156-1.079.427-.124.123-.202.302-.248.493-.034.159-.043.326-.056.508V0Z" style="fill:#878787;fill-opacity:1;fill-rule:nonzero;stroke:none;stroke-width:.177303" transform="matrix(1.98969 0 0 -1.98969 304.216 81.931)"/></g><path d="M274.036 400.064h1.147v-7.496h-1.147z" style="fill:#878787;fill-opacity:1;fill-rule:nonzero;stroke:none;stroke-width:.177303" transform="matrix(1.98969 0 0 -1.98969 -235.155 868.501)"/><g style="stroke-width:.177303"><path d="M0 0h-.787v1.021h2.72V0h-.809v-6.475H0Z" style="fill:#878787;fill-opacity:1;fill-rule:nonzero;stroke:none;stroke-width:.177303" transform="matrix(1.98969 0 0 -1.98969 316.083 74.53)"/></g><g style="stroke-width:.177303"><path d="m0 0 .449-2.349L.876 0h1.146l-.978-4.709v-2.787H-.124v2.821L-1.18 0Z" style="fill:#878787;fill-opacity:1;fill-rule:nonzero;stroke:none;stroke-width:.177303" transform="matrix(1.98969 0 0 -1.98969 324.096 72.497)"/></g><g style="stroke-width:.177303"><path d="M0 0v1.181c0 .122 0 .19-.011.257-.01.134-.1.213-.224.213-.203 0-.248-.089-.248-.47v-4.664c0-.382.045-.473.248-.473.191 0 .235.079.235.473v1.472h-.225v1.022h1.372v-3.91H.528l-.078.294c-.158-.26-.394-.373-.764-.373-.404 0-.821.168-1.033.428-.124.123-.202.302-.248.493a4 4 0 0 0-.057.506v4.798c.012.18.024.348.057.506.124.573.618.91 1.337.91.471 0 .876-.147 1.102-.417.122-.135.201-.302.245-.493.046-.247.058-.293.058-.831V0Z" style="fill:#878787;fill-opacity:1;fill-rule:nonzero;stroke:none;stroke-width:.177303" transform="matrix(1.98969 0 0 -1.98969 337.527 77.66)"/></g><g style="stroke-width:.177303"><path d="M0 0h1.113l.36-3.764L1.776 0h.977l.382-3.809L3.428 0h1.089l-.753-7.494H2.652l-.371 3.742-.326-3.742H.821Z" style="fill:#878787;fill-opacity:1;fill-rule:nonzero;stroke:none;stroke-width:.177303" transform="matrix(1.98969 0 0 -1.98969 341.94 72.497)"/></g><g style="stroke-width:.177303"><path d="m0 0-.27 2.729L-.483 0Zm-1.044 4.797h1.56l.899-7.494H.27L.102-.989h-.653l-.135-1.708h-1.135z" style="fill:#878787;fill-opacity:1;fill-rule:nonzero;stroke:none;stroke-width:.177303" transform="matrix(1.98969 0 0 -1.98969 355.73 82.042)"/></g><g style="stroke-width:.177303"><path d="M0 0h1.225l.651-3.809V0h1.057v-7.494H1.72l-.652 3.799v-3.799H0Z" style="fill:#878787;fill-opacity:1;fill-rule:nonzero;stroke:none;stroke-width:.177303" transform="matrix(1.98969 0 0 -1.98969 360.52 72.497)"/></g><g style="stroke-width:.177303"><path d="M0 0v1.181c0 .122 0 .19-.013.257-.01.134-.1.213-.223.213-.203 0-.247-.089-.247-.47v-4.664c0-.382.044-.473.247-.473.192 0 .236.079.236.473v1.472h-.225v1.022h1.371v-3.91H.528l-.079.294c-.157-.26-.392-.373-.764-.373-.405 0-.821.168-1.034.428-.124.123-.202.302-.248.493a4 4 0 0 0-.055.506v4.798c.011.18.022.348.055.506.124.573.619.91 1.339.91.472 0 .876-.147 1.1-.417.124-.135.202-.302.247-.493.045-.247.057-.293.057-.831V0Z" style="fill:#878787;fill-opacity:1;fill-rule:nonzero;stroke:none;stroke-width:.177303" transform="matrix(1.98969 0 0 -1.98969 372.364 77.66)"/></g><g style="stroke-width:.177303"><path d="M0 0h1.473l.505-3.786L2.473 0H3.9v-7.494H2.832v4.372l-.528-4.372h-.72l-.538 4.36v-4.36H0Z" style="fill:#878787;fill-opacity:1;fill-rule:nonzero;stroke:none;stroke-width:.177303" transform="matrix(1.98969 0 0 -1.98969 377.366 72.497)"/></g><g style="stroke-width:.177303"><path d="m0 0 .449-2.348L.877 0h1.146l-.979-4.707v-2.787H-.124v2.821L-1.18 0Z" style="fill:#878787;fill-opacity:1;fill-rule:nonzero;stroke:none;stroke-width:.177303" transform="matrix(1.98969 0 0 -1.98969 389.354 72.497)"/></g><g style="stroke-width:.177303"><path d="M0 0h2.17v-1.022H1.147v-2.157H2.17V-4.19H1.147v-2.282H2.17v-1.022H0Z" style="fill:#878787;fill-opacity:1;fill-rule:nonzero;stroke:none;stroke-width:.177303" transform="matrix(1.98969 0 0 -1.98969 395.26 72.497)"/></g><g style="stroke-width:.177303"><path d="M0 0c.191 0 .236.079.236.473v4.664c0 .122 0 .19-.011.258-.012.133-.101.212-.225.212-.202 0-.248-.089-.248-.47V.473C-.248.091-.202 0 0 0m1.405.405c-.012-.179-.023-.347-.057-.506-.123-.585-.619-.92-1.348-.92-.484 0-.888.156-1.112.427a1.05 1.05 0 0 0-.247.493 3.5 3.5 0 0 0-.057.506v4.798c.011.18.023.348.057.506.122.585.617.91 1.347.91.483 0 .888-.147 1.113-.417.124-.135.202-.302.247-.493.034-.158.045-.326.057-.506V.731Z" style="fill:#878787;fill-opacity:1;fill-rule:nonzero;stroke:none;stroke-width:.177303" transform="matrix(1.98969 0 0 -1.98969 404.717 85.531)"/></g><g style="stroke-width:.177303"><path d="M0 0h1.225l.651-3.809V0h1.057v-7.494H1.72l-.653 3.799v-3.799H0Z" style="fill:#878787;fill-opacity:1;fill-rule:nonzero;stroke:none;stroke-width:.177303" transform="matrix(1.98969 0 0 -1.98969 410.234 72.497)"/></g><g style="stroke-width:.177303"><path d="M0 0v1.181c0 .122 0 .19-.012.257-.011.134-.101.213-.224.213-.202 0-.248-.089-.248-.47v-4.664c0-.382.046-.473.248-.473.191 0 .236.079.236.473v1.472h-.226v1.022h1.372v-3.91H.527l-.078.294c-.157-.26-.393-.373-.764-.373-.404 0-.82.168-1.034.428a1 1 0 0 0-.246.493 3.5 3.5 0 0 0-.057.506v4.798c.011.18.023.348.057.506.122.573.618.91 1.336.91.472 0 .876-.147 1.101-.417.124-.135.202-.302.247-.493.044-.247.057-.293.057-.831V0Z" style="fill:#878787;fill-opacity:1;fill-rule:nonzero;stroke:none;stroke-width:.177303" transform="matrix(1.98969 0 0 -1.98969 422.08 77.66)"/></g><g style="stroke-width:.177303"><path d="M0 0h1.147v-3.179h.471V0h1.146v-7.494H1.618v3.304h-.471v-3.304H0Z" style="fill:#878787;fill-opacity:1;fill-rule:nonzero;stroke:none;stroke-width:.177303" transform="matrix(1.98969 0 0 -1.98969 431.328 72.497)"/></g><g style="stroke-width:.177303"><path d="M0 0c.19 0 .236.079.236.473v4.664c0 .122 0 .19-.012.258-.011.133-.099.212-.224.212-.202 0-.247-.089-.247-.47V.473C-.247.091-.202 0 0 0m1.404.405a3.3 3.3 0 0 0-.056-.506C1.225-.686.73-1.021 0-1.021c-.483 0-.887.156-1.112.427a1.1 1.1 0 0 0-.248.493 3.3 3.3 0 0 0-.055.506v4.798c.01.18.021.348.055.506.124.585.618.91 1.349.91.483 0 .887-.147 1.112-.417.124-.135.202-.302.247-.493a3 3 0 0 0 .056-.506V.731Z" style="fill:#878787;fill-opacity:1;fill-rule:nonzero;stroke:none;stroke-width:.177303" transform="matrix(1.98969 0 0 -1.98969 442.369 85.531)"/></g><g style="stroke-width:.177303"><path d="M0 0v-1.337c0-.122 0-.202.012-.259.01-.134.089-.214.225-.214.202 0 .246.091.246.473v.9c0 .449-.044.56-.37.832l-.608.549c-.527.46-.651.719-.651 1.371v1.079c.012.179.023.347.057.505.123.574.617.911 1.314.911.449 0 .854-.158 1.079-.417.112-.135.203-.302.235-.494.057-.247.057-.293.057-.831v-.912H.483v1.171c0 .381-.044.471-.246.471-.191 0-.237-.09-.237-.471v-.764c0-.407.046-.484.394-.799L1 1.225c.507-.438.619-.719.619-1.427v-1.202c0-.18-.023-.348-.057-.506-.112-.573-.606-.921-1.325-.921-.45 0-.854.156-1.079.428a1 1 0 0 0-.247.493c-.034.158-.045.326-.057.506V0Z" style="fill:#878787;fill-opacity:1;fill-rule:nonzero;stroke:none;stroke-width:.177303" transform="matrix(1.98969 0 0 -1.98969 449.987 81.931)"/></g><g style="stroke-width:.177303"><path d="M0 0c.314 0 .404.092.404.418v1.605c0 .35-.078.427-.46.427V0Zm-1.203 3.473h1.36c.584 0 .843-.079 1.079-.303.247-.237.315-.55.315-1.405v-1.1c0-.495-.035-.776-.124-1.034a.94.94 0 0 0-.281-.416C.932-.966.708-1.021.135-1.021h-.191v-3h-1.147z" style="fill:#878787;fill-opacity:1;fill-rule:nonzero;stroke:none;stroke-width:.177303" transform="matrix(1.98969 0 0 -1.98969 458.256 79.407)"/></g><path d="M351.353 400.064h1.147v-7.494h-1.147z" style="fill:#878787;fill-opacity:1;fill-rule:nonzero;stroke:none;stroke-width:.177303" transform="matrix(1.98969 0 0 -1.98969 -235.155 868.501)"/><g style="stroke-width:.177303"><path d="M0 0h-.786v1.022h2.719V0h-.809v-6.472H0Z" style="fill:#878787;fill-opacity:1;fill-rule:nonzero;stroke:none;stroke-width:.177303" transform="matrix(1.98969 0 0 -1.98969 469.917 74.532)"/></g><g style="stroke-width:.177303"><path d="m0 0-.27 2.729L-.483 0Zm-1.044 4.797h1.56l.9-7.494H.27L.101-.989h-.652l-.135-1.708H-1.82Z" style="fill:#878787;fill-opacity:1;fill-rule:nonzero;stroke:none;stroke-width:.177303" transform="matrix(1.98969 0 0 -1.98969 478.196 82.042)"/></g><g style="stroke-width:.177303"><path d="M0 0h1.146v-6.472h1.035v-1.022H0Z" style="fill:#878787;fill-opacity:1;fill-rule:nonzero;stroke:none;stroke-width:.177303" transform="matrix(1.98969 0 0 -1.98969 482.983 72.497)"/></g></g></svg>